# xmcd
#
# Track frame offsets:
#	150
#	12068
#	25246
#	37735
#	55023
#	67196
#	79016
#	90816
#	103794
#	117863
#	138570
#	149815
#	161232
#	172842
#	186532
#	201602
#	214442
#	225789
#	239703
#	249330
#	262242
#	274468
#	290198
#	303064
#
# Disc length: 4220 seconds
#
# Revision: 2
# Processed by: cddbd v1.5.1PL0 Copyright (c) Steve Scherf et al.
# Submitted via: MusicWizard 7.0.2
#
DISCID=69107a18
DTITLE=Various Artist - Best Country - (C)1989 TELDEC [CD 1/2)
DYEAR=1989
DGENRE=Country
TTITLE0=The Oak Ridge Boys - Elvira
TTITLE1=Tanya Tucker - Here's Some Love
TTITLE2=Don Williams - Some Broken Hearts Never Mend
TTITLE3=Billie Jo Spears - Blanket On The Ground
TTITLE4=Waylon Jennings - Working Without A Net
TTITLE5=Kenny Rogers - Me And Bobby McGee
TTITLE6=Johnny Cash - Ring Of Fire
TTITLE7=Lynn Anderson - Rose Garden
TTITLE8=Patty Loveless - Wicked Ways
TTITLE9=Conway Twitty - Red Neckin' Love Makin' Night
TTITLE10=Donna Fargo - The Happiest Girl In The Whole USA
TTITLE11=Billie "Crash" Craddock - Rub It In
TTITLE12=The Osborne Brothers - Rocky Top
TTITLE13=Loretta Lynn - Just A Woman
TTITLE14=John Schneider - You're The Last Thing I Needed Tonight
TTITLE15=Bobby Bare - Detroit City
TTITLE16=Kitty Wells - It Wasn't God Who Made Honky Tonk Angels
TTITLE17=Marty Robbins - Walking Piece Of Heaven
TTITLE18=Red Steagull - Lone Star Beer And Bob Wills Music
TTITLE19=Diana Trask - Lean It All On Me
TTITLE20=Patzy Cline - Crazy
TTITLE21=Joe Ely - Dallas
TTITLE22=Barbara Mandrell - Midnight Angel
TTITLE23=Narvel Felts - Somebody Hold Me
EXTD=(c)1989 TELDEC RecordService GmbH, Original MCA Recordings --  DINO Box 2231
EXTT0=
EXTT1=
EXTT2=
EXTT3=
EXTT4=
EXTT5=
EXTT6=
EXTT7=
EXTT8=
EXTT9=
EXTT10=
EXTT11=
EXTT12=
EXTT13=
EXTT14=
EXTT15=
EXTT16=
EXTT17=
EXTT18=
EXTT19=
EXTT20=
EXTT21=
EXTT22=
EXTT23=
PLAYORDER=
